<?xml version="1.0" encoding="UTF-8"?>
<svg width="63px" height="63px" viewBox="0 0 63 63" version="1.1" xmlns="http://www.w3.org/2000/svg" xmlns:xlink="http://www.w3.org/1999/xlink">
    <title>cible</title>
    <g id="Page-1" stroke="none" stroke-width="1" fill="none" fill-rule="evenodd">
        <g id="Planche" transform="translate(-119.000000, -713.000000)" fill="#4A5186" fill-rule="nonzero">
            <g id="cible" transform="translate(119.000000, 713.000000)">
                <path d="M33.8684433,7.53983804 C45.2740303,8.65320062 54.3464593,17.7264748 55.4606034,29.1313448 L60.6646735,29.1313448 C63.7784422,29.1313448 63.7784422,33.8686552 60.6646735,33.8686552 L55.4606034,33.8686552 C54.3464593,45.2735252 45.2740303,54.3467994 33.8684433,55.460162 L33.8684433,60.6634762 C33.8684433,63.7788413 29.1311625,63.7788413 29.1311625,60.6634762 L29.1311625,55.4609505 C17.7263639,54.3467994 8.65314647,45.2735252 7.53979086,33.8686552 L2.33650922,33.8686552 C-0.778836406,33.8686552 -0.778836406,29.1313448 2.33650922,29.1313448 L7.53900237,29.1313448 C8.65314647,17.7264748 17.7263639,8.65320062 29.1311625,7.53983804 L29.1311625,2.33652384 C29.1311625,-0.77884128 33.8684433,-0.77884128 33.8684433,2.33652384 L33.8684433,7.53983804 Z M31.4445177,15.2045353 C40.4131634,15.2045353 47.6845952,22.4760126 47.6845952,31.4447145 C47.6845952,40.4134163 40.4131634,47.6848936 31.4445177,47.6848936 C22.475872,47.6848936 15.2044402,40.4134163 15.2044402,31.4447145 C15.2044402,22.4760126 22.475872,15.2045353 31.4445177,15.2045353 Z M31.4960395,18.8097344 C24.4899077,18.8097344 18.8096167,24.4900609 18.8096167,31.4976249 C18.8096167,38.5038006 24.4899077,44.1855154 31.4960395,44.1855154 C38.5035596,44.1855154 44.1838506,38.5051889 44.1838506,31.4976249 C44.1838506,24.4900609 38.5035596,18.8097344 31.4960395,18.8097344 Z M31.4944481,10.9723451 C20.1606142,10.9723451 10.9722764,20.1591634 10.9722764,31.4946452 C10.9722764,42.8301271 20.1606142,52.0169454 31.4944481,52.0169454 C42.8298591,52.0169454 52.0181968,42.8301271 52.0181968,31.4946452 C52.0181968,20.1591634 42.8298591,10.9723451 31.4944481,10.9723451 Z" id="Shape"></path>
            </g>
        </g>
    </g>
</svg>