<?xml version="1.0" encoding="utf-8"?>
<!-- Generator: Adobe Illustrator 17.0.0, SVG Export Plug-In . SVG Version: 6.00 Build 0)  -->
<!DOCTYPE svg PUBLIC "-//W3C//DTD SVG 1.1//EN" "http://www.w3.org/Graphics/SVG/1.1/DTD/svg11.dtd">
<svg version="1.1" id="Layer_1" xmlns="http://www.w3.org/2000/svg" xmlns:xlink="http://www.w3.org/1999/xlink" x="0px" y="0px"
	 width="3000px" height="3000px" viewBox="0 0 3000 3000" enable-background="new 0 0 3000 3000" xml:space="preserve">
<circle fill="#FABC14" cx="1124.078" cy="1453.163" r="477.563"/>
<path fill="#FFFFFF" stroke="#000000" stroke-width="2.9278" stroke-miterlimit="10" d="M150.833,1718.919"/>
<polyline fill="none" stroke="#000000" stroke-width="47" stroke-linecap="round" stroke-linejoin="round" stroke-miterlimit="10" points="
	2020.5,1101 2020.5,1718.919 1525.5,1098.22 1525.5,1827.5 720.5,1827.5 720.5,1101.148 436.536,1505.188 155.5,1101.148 
	155.5,1719 "/>
<g>
	<path d="M2192.606,1704.729l279.259-605.216c6.538-14.009,15.878-23.349,32.689-23.349h1.868c16.812,0,26.151,9.34,32.688,23.349
		l278.325,603.348c2.802,5.604,3.735,10.273,3.735,14.943c0,12.142-10.273,22.416-23.349,22.416
		c-11.208,0-19.614-8.406-24.284-18.68l-76.586-168.116h-385.731l-76.586,169.05c-4.67,11.208-12.142,17.746-23.35,17.746
		c-12.142,0-22.415-9.34-22.415-20.548C2188.871,1715.936,2189.805,1710.332,2192.606,1704.729z M2676.406,1509.527
		l-171.852-378.259l-172.785,378.259H2676.406z"/>
</g>
<g>
</g>
<g>
</g>
<g>
</g>
<g>
</g>
<g>
</g>
<g>
</g>
<g>
</g>
<g>
</g>
<g>
</g>
<g>
</g>
<g>
</g>
<g>
</g>
<g>
</g>
<g>
</g>
<g>
</g>
</svg>
